HIERARCHY
ROOT Hips
{
	OFFSET 0.00000 0.00000 0.00000
	CHANNELS 6 Xposition Yposition Zposition Zrotation Yrotation Xrotation 
	JOINT LHipJoint
	{
		OFFSET 0 0 0
		CHANNELS 3 Zrotation Yrotation Xrotation
		JOINT LeftUpLeg
		{
			OFFSET 1.34019 -1.87553 0.90315
			CHANNELS 3 Zrotation Yrotation Xrotation
			JOINT LeftLeg
			{
				OFFSET 2.55316 -7.01474 0.00000
				CHANNELS 3 Zrotation Yrotation Xrotation
				JOINT LeftFoot
				{
					OFFSET 2.64657 -7.27139 0.00000
					CHANNELS 3 Zrotation Yrotation Xrotation
					JOINT LeftToeBase
					{
						OFFSET 0.24207 -0.66507 2.14489
						CHANNELS 3 Zrotation Yrotation Xrotation
						End Site
						{
							OFFSET 0.00000 -0.00000 1.12451
						}
					}
				}
			}
		}
	}
	JOINT RHipJoint
	{
		OFFSET 0 0 0
		CHANNELS 3 Zrotation Yrotation Xrotation
		JOINT RightUpLeg
		{
			OFFSET -1.28320 -1.87553 0.90315
			CHANNELS 3 Zrotation Yrotation Xrotation
			JOINT RightLeg
			{
				OFFSET -2.60484 -7.15674 0.00000
				CHANNELS 3 Zrotation Yrotation Xrotation
				JOINT RightFoot
				{
					OFFSET -2.60296 -7.15159 0.00000
					CHANNELS 3 Zrotation Yrotation Xrotation
					JOINT RightToeBase
					{
						OFFSET -0.31082 -0.85398 2.28998
						CHANNELS 3 Zrotation Yrotation Xrotation
						End Site
						{
							OFFSET -0.00000 -0.00000 1.21611
						}
					}
				}
			}
		}
	}
	JOINT LowerBack
	{
		OFFSET 0 0 0
		CHANNELS 3 Zrotation Yrotation Xrotation
		JOINT Spine
		{
			OFFSET -0.00160 2.05581 -0.15156
			CHANNELS 3 Zrotation Yrotation Xrotation
			JOINT Spine1
			{
				OFFSET 0.04594 2.06326 -0.01617
				CHANNELS 3 Zrotation Yrotation Xrotation
				JOINT Neck
				{
					OFFSET 0 0 0
					CHANNELS 3 Zrotation Yrotation Xrotation
					JOINT Neck1
					{
						OFFSET 0.03753 1.73883 0.26751
						CHANNELS 3 Zrotation Yrotation Xrotation
						JOINT Head
						{
							OFFSET -0.09795 1.76129 -0.31794
							CHANNELS 3 Zrotation Yrotation Xrotation
							End Site
							{
								OFFSET -0.03611 1.79987 -0.13846
							}
						}
					}
				}
				JOINT LeftShoulder
				{
					OFFSET 0 0 0
					CHANNELS 3 Zrotation Yrotation Xrotation
					JOINT LeftArm
					{
						OFFSET 3.30667 1.29205 -0.22445
						CHANNELS 3 Zrotation Yrotation Xrotation
						JOINT LeftForeArm
						{
							OFFSET 4.92785 -0.00000 -0.00000
							CHANNELS 3 Zrotation Yrotation Xrotation
							JOINT LeftHand
							{
								OFFSET 3.44052 -0.00000 0.00000
								CHANNELS 3 Zrotation Yrotation Xrotation
								JOINT LeftFingerBase
								{
									OFFSET 0 0 0
									CHANNELS 3 Zrotation Yrotation Xrotation
									JOINT LeftHandIndex1
									{
										OFFSET 0.65433 -0.00000 0.00000
										CHANNELS 3 Zrotation Yrotation Xrotation
										End Site
										{
											OFFSET 0.52753 -0.00000 0.00000
										}
									}
								}
								JOINT LThumb
								{
									OFFSET 0 0 0
									CHANNELS 3 Zrotation Yrotation Xrotation
									End Site
									{
										OFFSET 0.53559 -0.00000 0.53559
									}
								}
							}
						}
					}
				}
				JOINT RightShoulder
				{
					OFFSET 0 0 0
					CHANNELS 3 Zrotation Yrotation Xrotation
					JOINT RightArm
					{
						OFFSET -3.20032 1.49783 -0.27688
						CHANNELS 3 Zrotation Yrotation Xrotation
						JOINT RightForeArm
						{
							OFFSET -5.09181 -0.00000 -0.00000
							CHANNELS 3 Zrotation Yrotation Xrotation
							JOINT RightHand
							{
								OFFSET -3.49865 -0.00000 -0.00000
								CHANNELS 3 Zrotation Yrotation Xrotation
								JOINT RightFingerBase
								{
									OFFSET 0 0 0
									CHANNELS 3 Zrotation Yrotation Xrotation
									JOINT RightHandIndex1
									{
										OFFSET -0.66641 -0.00000 0.00000
										CHANNELS 3 Zrotation Yrotation Xrotation
										End Site
										{
											OFFSET -0.53728 -0.00000 0.00000
										}
									}
								}
								JOINT RThumb
								{
									OFFSET 0 0 0
									CHANNELS 3 Zrotation Yrotation Xrotation
									End Site
									{
										OFFSET -0.54548 -0.00000 0.54548
									}
								}
							}
						}
					}
				}
			}
		}
	}
}
MOTION
Frames: 13
Frame Time: .0083333
0.3985 17.6636 -10.7003 10.6668 4.6608 9.8282 0.0000 0.0000 0.0000 -31.4984 3.4564 8.1696 0.2813 3.4113 9.4261 -0.2997 11.0898 -9.9082 1.1681 -6.8606 -19.3031 0.0000 0.0000 0.0000 3.1524 3.8047 -45.8079 -3.1374 -10.9143 31.9913 0.4030 -14.1891 -14.5740 -0.1719 2.6711 -7.3643 -13.4963 -1.3944 9.3842 -1.1786 -3.4934 -1.2032 6.8006 -1.2805 -5.8774 3.7620 -0.3757 -16.0145 -3.5385 -0.7857 13.8943 -1.8439 -0.4949 6.8431 -0.0000 -0.0000 0.0000 -81.5525 -18.8456 32.7178 25.8979 -37.1077 -8.8260 -0.0000 0.0000 -22.9354 18.0660 -1.7528 -0.5716 -7.1250 0.0000 -0.0000 -6.5779 28.1146 2.7185 -0.0000 -0.0000 0.0000 84.1308 -21.8485 -24.5490 -5.9505 10.1796 -0.5305 0.0000 0.0000 27.0553 -15.5331 -6.2798 1.7414 7.1250 -0.0000 -0.0000 9.4193 -36.3556 2.0243
0.3915 17.6611 -10.4101 10.5397 5.1246 9.8424 0.0000 0.0000 0.0000 -30.9857 3.6207 9.8577 0.2094 2.9464 8.1294 -0.3233 10.8454 -8.4277 1.3426 -7.3363 -20.7156 0.0000 0.0000 0.0000 2.8195 4.5164 -45.1607 -2.7080 -10.2067 29.6486 0.3997 -14.6416 -15.5549 -0.2705 3.3453 -9.2415 -13.3371 -1.5909 9.2430 -1.0727 -3.7097 -1.2384 6.8443 -1.3951 -5.7893 3.7421 -0.3621 -16.0888 -3.5313 -0.7638 14.0537 -1.8385 -0.4848 6.9084 -0.0000 -0.0000 0.0000 -81.1038 -19.6915 33.0129 26.7875 -37.9758 -9.3680 -0.0000 0.0000 -23.1173 18.1385 -2.2618 -0.7407 -7.1250 0.0000 -0.0000 -6.4945 27.5821 2.7657 -0.0000 -0.0000 0.0000 84.1028 -22.5851 -26.8153 -5.8423 9.9989 -0.5115 0.0000 0.0000 28.5017 -15.6599 -6.2613 1.7512 7.1250 -0.0000 -0.0000 9.3113 -36.3437 2.0033
0.3838 17.6580 -10.1149 10.3454 5.5962 9.7912 0.0000 0.0000 0.0000 -30.3907 3.7231 11.3767 0.1673 2.6354 7.2653 -0.3341 10.5853 -6.9848 1.5273 -7.8031 -22.1175 0.0000 0.0000 0.0000 2.6064 5.1634 -44.4287 -2.3874 -9.6303 27.7877 0.3779 -15.0272 -16.6492 -0.3596 3.8522 -10.6613 -13.0975 -1.7722 9.1170 -0.9547 -3.8974 -1.2520 6.8523 -1.4996 -5.6963 3.7243 -0.3564 -16.1921 -3.5443 -0.7501 14.2446 -1.8415 -0.4803 6.9885 0.0000 0.0000 0.0000 -80.7039 -20.4727 33.2152 27.6715 -38.8120 -9.9171 -0.0000 0.0000 -23.1754 18.2305 -2.9078 -0.9572 -7.1250 0.0000 -0.0000 -6.3922 26.9054 2.8240 0.0000 0.0000 0.0000 84.1084 -23.2609 -29.1641 -5.7345 9.8186 -0.4930 0.0000 0.0000 30.0011 -15.7721 -6.1160 1.7236 7.1250 -0.0000 -0.0000 9.1965 -36.2013 2.0105
0.3751 17.6544 -9.8143 10.0721 6.0611 9.6599 0.0000 0.0000 0.0000 -29.7157 3.7512 12.6132 0.1576 2.5581 7.0508 -0.3336 10.3258 -5.6751 1.7192 -8.2549 -23.4910 0.0000 0.0000 0.0000 2.6087 5.6562 -43.6474 -2.1686 -9.2087 26.4504 0.3255 -15.1570 -17.6446 -0.4289 4.2031 -11.6489 -12.7788 -1.9294 9.0244 -0.8149 -4.0479 -1.2519 6.8362 -1.5877 -5.6191 3.7011 -0.3641 -16.3073 -3.5923 -0.7471 14.4439 -1.8564 -0.4847 7.0730 0.0000 0.0000 0.0000 -80.3744 -21.1638 33.3391 28.5516 -39.6191 -10.4735 -0.0000 0.0000 -23.1384 18.3355 -3.6909 -1.2222 -7.1250 0.0000 -0.0000 -6.2784 26.0842 2.8947 0.0000 0.0000 0.0000 84.1398 -23.9255 -31.2849 -5.6493 9.6760 -0.4785 0.0000 0.0000 31.2402 -15.8710 -5.9193 1.6795 7.1250 -0.0000 -0.0000 9.0859 -36.0051 2.0298
0.3654 17.6505 -9.5080 9.7390 6.4913 9.4575 0.0000 0.0000 0.0000 -28.9980 3.7041 13.5010 0.1817 2.7455 7.5709 -0.3246 10.0684 -4.5188 1.9120 -8.6804 -24.8005 0.0000 0.0000 0.0000 2.8690 5.9185 -42.8617 -2.0410 -8.9510 25.6423 0.2432 -14.8887 -18.2921 -0.4854 4.4676 -12.3960 -12.4076 -2.0592 8.9399 -0.6624 -4.1559 -1.2308 6.7988 -1.6576 -5.5358 3.6768 -0.3764 -16.4011 -3.6768 -0.7437 14.5869 -1.8823 -0.4925 7.1354 0.0000 0.0000 0.0000 -80.1124 -21.7560 33.3676 29.4426 -40.4108 -11.0465 -0.0000 0.0000 -23.0087 18.4516 -4.5266 -1.5084 -7.1250 0.0000 -0.0000 -6.1601 25.2064 2.9664 0.0000 0.0000 0.0000 84.2001 -24.5421 -33.2706 -5.5761 9.5533 -0.4663 0.0000 0.0000 32.3223 -15.9503 -5.6975 1.6253 7.1250 -0.0000 -0.0000 8.9887 -35.7818 2.0571
0.3548 17.6458 -9.1960 9.3581 6.8397 9.1909 0.0000 0.0000 0.0000 -28.2624 3.6404 14.0748 0.2399 3.1518 8.7017 -0.3089 9.7980 -3.4231 2.1019 -9.0751 -26.0307 0.0000 0.0000 0.0000 3.3949 5.9362 -42.0845 -1.9925 -8.8504 25.3286 0.1332 -14.1534 -18.5250 -0.5348 4.6858 -13.0147 -12.0055 -2.1483 8.8588 -0.5028 -4.2071 -1.2000 6.7451 -1.7004 -5.4578 3.6612 -0.3903 -16.4551 -3.7998 -0.7368 14.6835 -1.9210 -0.5018 7.1759 0.0000 -0.0000 0.0000 -79.9126 -22.2190 33.3228 30.3558 -41.1964 -11.6433 -0.0000 0.0000 -22.8670 18.5743 -5.3354 -1.7897 -7.1250 0.0000 -0.0000 -6.0441 24.3553 3.0298 0.0000 -0.0000 0.0000 84.2870 -25.1415 -34.9515 -5.5215 9.4618 -0.4573 0.0000 0.0000 33.1099 -16.0092 -5.4788 1.5692 7.1250 -0.0000 -0.0000 8.9096 -35.5604 2.0872
0.3428 17.6406 -8.8788 8.9499 7.0953 8.8826 0.0000 0.0000 0.0000 -27.5246 3.5948 14.4204 0.3303 3.6940 10.2172 -0.2844 9.4773 -2.2269 2.2834 -9.4330 -27.1595 0.0000 0.0000 0.0000 4.0975 5.8096 -41.2974 -2.0121 -8.8912 25.4556 0.0176 -13.0832 -18.3840 -0.5820 4.8848 -13.5802 -11.6045 -2.1951 8.7780 -0.3376 -4.2037 -1.1787 6.6920 -1.7141 -5.4014 3.6577 -0.4007 -16.4193 -3.9691 -0.7180 14.7080 -1.9740 -0.5085 7.1777 0.0000 -0.0000 0.0000 -79.7819 -22.5245 33.2337 31.2875 -41.9717 -12.2617 -0.0000 0.0000 -22.8193 18.7567 -6.1289 -2.0764 -7.1250 0.0000 -0.0000 -5.8902 23.5167 3.0663 0.0000 -0.0000 0.0000 84.3981 -25.7548 -36.1940 -5.4922 9.4125 -0.4525 0.0000 0.0000 33.4888 -16.0351 -5.2558 1.5081 7.1250 -0.0000 -0.0000 8.8578 -35.3328 2.1245
0.3299 17.6356 -8.5578 8.5604 7.2450 8.5563 0.0000 0.0000 0.0000 -26.8801 3.4256 14.6377 0.4522 4.3139 11.9614 -0.2562 9.2587 -0.7904 2.4506 -9.7475 -28.1628 0.0000 0.0000 0.0000 4.8478 5.6366 -40.5035 -2.0883 -9.0477 25.9447 -0.0815 -11.8516 -17.9275 -0.6263 5.0640 -14.0911 -11.2430 -2.2016 8.6933 -0.1812 -4.1537 -1.1779 6.6468 -1.7009 -5.3725 3.6325 -0.4125 -16.3402 -4.1428 -0.6935 14.7477 -2.0241 -0.5138 7.1773 -0.0000 0.0000 0.0000 -79.7164 -22.6653 33.0971 32.2196 -42.7216 -12.8896 -0.0000 0.0000 -22.9240 18.9520 -6.9051 -2.3641 -7.1250 0.0000 -0.0000 -5.7332 22.6937 3.0925 -0.0000 0.0000 0.0000 84.5270 -26.3661 -37.1275 -5.4764 9.3861 -0.4499 0.0000 0.0000 33.6262 -16.0403 -5.0635 1.4536 7.1250 -0.0000 -0.0000 8.8276 -35.1355 2.1600
0.3175 17.6323 -8.2343 8.2367 7.2852 8.2165 0.0000 0.0000 0.0000 -26.3659 3.2285 14.7246 0.6052 4.9796 13.8504 -0.2099 9.0516 1.0157 2.5891 -9.9982 -28.9709 0.0000 0.0000 0.0000 5.5210 5.4976 -39.7070 -2.2108 -9.2921 26.7133 -0.1443 -10.6808 -17.2215 -0.6608 5.1989 -14.4768 -10.9414 -2.1614 8.6259 -0.0586 -4.0544 -1.2007 6.5957 -1.6583 -5.3869 3.5832 -0.4328 -16.2228 -4.2973 -0.6760 14.8259 -2.0648 -0.5216 7.1829 -0.0000 0.0000 0.0000 -79.7113 -22.6368 32.9401 33.1362 -43.4344 -13.5156 -0.0000 0.0000 -23.2171 19.1787 -7.6520 -2.6517 -7.1250 0.0000 -0.0000 -5.5599 21.8978 3.0994 -0.0000 0.0000 0.0000 84.6925 -26.9621 -37.8710 -5.4672 9.3707 -0.4484 0.0000 0.0000 33.6320 -16.0348 -4.9420 1.4183 7.1250 -0.0000 -0.0000 8.8161 -35.0105 2.1842
0.3054 17.6330 -7.9104 7.9638 7.2484 7.8712 0.0000 0.0000 0.0000 -25.9606 2.9760 14.6594 0.7930 5.6842 15.8710 -0.1332 8.8658 3.2415 2.6901 -10.1757 -29.5476 0.0000 0.0000 0.0000 6.0701 5.4824 -38.9054 -2.3673 -9.5926 27.6673 -0.1609 -9.8288 -16.3948 -0.6810 5.2764 -14.6985 -10.6891 -2.0870 8.5923 0.0409 -3.9226 -1.2513 6.5469 -1.5940 -5.4550 3.5568 -0.4439 -16.0866 -4.4656 -0.6468 14.9747 -2.1133 -0.5236 7.2085 0.0000 0.0000 0.0000 -79.7876 -22.4492 32.7370 33.9977 -44.0830 -14.1115 -0.0000 0.0000 -23.6798 19.3835 -8.3875 -2.9379 -7.1250 0.0000 -0.0000 -5.4083 21.1130 3.1108 0.0000 0.0000 0.0000 84.8809 -27.5290 -38.3666 -5.4648 9.3667 -0.4480 0.0000 0.0000 33.4485 -16.0321 -4.9341 1.4158 7.1250 -0.0000 -0.0000 8.8172 -35.0023 2.1863
0.2948 17.6395 -7.5879 7.7117 7.1497 7.5258 0.0000 0.0000 0.0000 -25.6325 2.6647 14.4006 1.0226 6.4330 18.0461 -0.0124 8.7200 5.8714 2.7297 -10.2440 -29.7705 0.0000 0.0000 0.0000 6.5307 5.5601 -38.1290 -2.5448 -9.9189 28.7144 -0.1350 -9.3806 -15.4911 -0.6867 5.2980 -14.7605 -10.4352 -1.9886 8.5833 0.1196 -3.7632 -1.3075 6.4735 -1.5148 -5.5490 3.5246 -0.4537 -15.9740 -4.5997 -0.6192 15.1957 -2.1513 -0.5238 7.2619 0.0000 0.0000 0.0000 -79.9483 -22.1297 32.4447 34.8051 -44.6725 -14.6762 -0.0000 0.0000 -24.2596 19.5289 -9.0454 -3.1917 -7.1250 0.0000 -0.0000 -5.3045 20.4116 3.1347 0.0000 0.0000 0.0000 85.0863 -27.9624 -39.0402 -5.4437 9.3312 -0.4446 0.0000 0.0000 33.5285 -16.0358 -4.9902 1.4322 7.1250 -0.0000 -0.0000 8.8216 -35.0600 2.1749
0.2867 17.6527 -7.2680 7.3912 6.9879 7.1691 0.0000 0.0000 0.0000 -25.2912 2.2958 13.9206 1.3048 7.2363 20.4173 0.1663 8.6600 8.8666 2.6878 -10.1717 -29.5345 0.0000 0.0000 0.0000 7.0257 5.6967 -37.3655 -2.7285 -10.2420 29.7639 -0.0767 -9.3517 -14.5861 -0.6744 5.2512 -14.6265 -10.0961 -1.8704 8.5998 0.2095 -3.5698 -1.3576 6.3610 -1.4210 -5.6598 3.5327 -0.4497 -15.9198 -4.7510 -0.5791 15.4653 -2.2015 -0.5180 7.3417 -0.0000 0.0000 0.0000 -80.2076 -21.6991 32.0353 35.5416 -45.1950 -15.1964 -0.0000 0.0000 -24.9135 19.5787 -9.5984 -3.3939 -7.1250 0.0000 -0.0000 -5.2721 19.8260 3.1849 -0.0000 0.0000 0.0000 85.2809 -28.2453 -39.7255 -5.4106 9.2755 -0.4392 0.0000 0.0000 33.7401 -16.0256 -5.0986 1.4622 7.1250 -0.0000 -0.0000 8.8444 -35.1709 2.1565
0.2814 17.6722 -6.9512 6.9346 6.7912 6.8026 0.0000 0.0000 0.0000 -24.8474 1.8686 13.1988 1.6518 8.0996 23.0169 0.4186 8.7004 12.1920 2.5080 -9.8524 -28.5001 0.0000 0.0000 0.0000 7.6781 5.8005 -36.6023 -2.9048 -10.5393 30.7413 0.0034 -9.6645 -13.7104 -0.6472 5.1462 -14.3260 -9.6055 -1.7478 8.6184 0.3349 -3.3506 -1.3853 6.1967 -1.3212 -5.7560 3.6041 -0.4287 -15.8783 -4.9540 -0.5228 15.6698 -2.2769 -0.5059 7.4029 0.0000 -0.0000 0.0000 -80.5582 -21.1845 31.4917 36.1998 -45.6501 -15.6652 -0.0000 0.0000 -25.6204 19.5351 -9.9943 -3.5236 -7.1250 0.0000 -0.0000 -5.3067 19.4125 3.2552 0.0000 -0.0000 0.0000 85.4431 -28.3325 -40.5165 -5.3597 9.1901 -0.4311 0.0000 0.0000 34.2074 -16.0179 -5.2075 1.4926 7.1250 -0.0000 -0.0000 8.8653 -35.2823 2.1374
